<?xml version="1.0" encoding="UTF-8" standalone="no"?>
<!DOCTYPE svg PUBLIC "-//W3C//DTD SVG 1.1//EN" "http://www.w3.org/Graphics/SVG/1.1/DTD/svg11.dtd">
<svg width="100%" height="100%" viewBox="0 0 60 60" version="1.1" xmlns="http://www.w3.org/2000/svg" xmlns:xlink="http://www.w3.org/1999/xlink" xml:space="preserve" xmlns:serif="http://www.serif.com/" style="fill-rule:evenodd;clip-rule:evenodd;stroke-linejoin:round;stroke-miterlimit:2;">
    <g transform="matrix(1,0,0,1,-241.051,-276.051)">
        <g transform="matrix(1.3153,0,0,1.3153,85.5932,16.6841)">
            <path d="M141,197.192C128.412,197.192 118.192,207.412 118.192,220C118.192,232.588 128.412,242.808 141,242.808C153.588,242.808 163.808,232.588 163.808,220C163.808,207.412 153.588,197.192 141,197.192ZM141,202.808C150.488,202.808 158.192,210.512 158.192,220C158.192,229.488 150.488,237.192 141,237.192C131.512,237.192 123.808,229.488 123.808,220C123.808,210.512 131.512,202.808 141,202.808Z"/>
        </g>
    </g>
</svg>
