<?xml version="1.0" encoding="UTF-8" standalone="no"?>
<!DOCTYPE svg PUBLIC "-//W3C//DTD SVG 1.1//EN" "http://www.w3.org/Graphics/SVG/1.1/DTD/svg11.dtd">
<svg width="100%" height="100%" viewBox="0 0 58 58" version="1.1" xmlns="http://www.w3.org/2000/svg" xmlns:xlink="http://www.w3.org/1999/xlink" xml:space="preserve" xmlns:serif="http://www.serif.com/" style="fill-rule:evenodd;clip-rule:evenodd;stroke-linejoin:round;stroke-miterlimit:2;">
    <g transform="matrix(1,0,0,1,-436.468,-277.304)">
        <g transform="matrix(1.25267,0,0,1.25267,382.539,30.4635)">
            <path d="M88.949,200C88.949,198.371 87.629,197.051 86,197.051L46,197.051C44.371,197.051 43.051,198.371 43.051,200L43.051,240C43.051,241.629 44.371,242.949 46,242.949L86,242.949C87.629,242.949 88.949,241.629 88.949,240L88.949,200ZM83.051,202.949L83.051,237.051C83.051,237.051 48.949,237.051 48.949,237.051C48.949,237.051 48.949,202.949 48.949,202.949L83.051,202.949Z"/>
        </g>
    </g>
</svg>
